<mxfile host="app.diagrams.net" agent="Mozilla/5.0 (Windows NT 10.0; Win64; x64) AppleWebKit/537.36 (KHTML, like Gecko) Chrome/135.0.0.0 Safari/537.36" version="26.2.14">
  <diagram name="Page-1" id="2YBvvXClWsGukQMizWep">
    <mxGraphModel dx="1042" dy="527" grid="1" gridSize="10" guides="1" tooltips="1" connect="1" arrows="1" fold="1" page="1" pageScale="1" pageWidth="850" pageHeight="1100" math="0" shadow="0">
      <root>
        <mxCell id="0" />
        <mxCell id="1" parent="0" />
        <mxCell id="5JquPZKho5JhaqDctbcU-1" value="Χτίσμο σε ακίνητο" style="shape=umlFrame;whiteSpace=wrap;html=1;pointerEvents=0;" parent="1" vertex="1">
          <mxGeometry x="30" y="30" width="800" height="530" as="geometry" />
        </mxCell>
        <mxCell id="5JquPZKho5JhaqDctbcU-2" value="" style="shape=umlLifeline;perimeter=lifelinePerimeter;whiteSpace=wrap;html=1;container=1;dropTarget=0;collapsible=0;recursiveResize=0;outlineConnect=0;portConstraint=eastwest;newEdgeStyle={&quot;curved&quot;:0,&quot;rounded&quot;:0};participant=umlActor;" parent="1" vertex="1">
          <mxGeometry x="90" y="80" width="20" height="470" as="geometry" />
        </mxCell>
        <mxCell id="44rVyUkaG0VhfGzwX1aD-2" value="" style="html=1;points=[[0,0,0,0,5],[0,1,0,0,-5],[1,0,0,0,5],[1,1,0,0,-5]];perimeter=orthogonalPerimeter;outlineConnect=0;targetShapes=umlLifeline;portConstraint=eastwest;newEdgeStyle={&quot;curved&quot;:0,&quot;rounded&quot;:0};" parent="5JquPZKho5JhaqDctbcU-2" vertex="1">
          <mxGeometry x="5" y="42" width="10" height="438" as="geometry" />
        </mxCell>
        <mxCell id="44rVyUkaG0VhfGzwX1aD-6" value="" style="line;strokeWidth=1;fillColor=none;align=left;verticalAlign=middle;spacingTop=-1;spacingLeft=3;spacingRight=3;rotatable=0;labelPosition=right;points=[];portConstraint=eastwest;strokeColor=inherit;" parent="1" vertex="1">
          <mxGeometry x="60" y="140" width="740" height="8" as="geometry" />
        </mxCell>
        <mxCell id="44rVyUkaG0VhfGzwX1aD-7" value="Ρίψη ζαριών &amp;amp; τοποθέτηση παίκτη&amp;nbsp;" style="text;align=center;fontStyle=1;verticalAlign=middle;spacingLeft=3;spacingRight=3;strokeColor=none;rotatable=0;points=[[0,0.5],[1,0.5]];portConstraint=eastwest;html=1;" parent="1" vertex="1">
          <mxGeometry x="320" y="122" width="80" height="26" as="geometry" />
        </mxCell>
        <mxCell id="44rVyUkaG0VhfGzwX1aD-14" value="Εμφάνιση μυνήματος για ερώτηση" style="html=1;verticalAlign=bottom;endArrow=open;dashed=1;endSize=8;curved=0;rounded=0;" parent="1" target="5JquPZKho5JhaqDctbcU-2" edge="1">
          <mxGeometry x="0.1281" relative="1" as="geometry">
            <mxPoint x="710" y="170" as="sourcePoint" />
            <mxPoint x="630" y="170" as="targetPoint" />
            <mxPoint as="offset" />
          </mxGeometry>
        </mxCell>
        <mxCell id="44rVyUkaG0VhfGzwX1aD-16" value="alt" style="shape=umlFrame;whiteSpace=wrap;html=1;pointerEvents=0;" parent="1" vertex="1">
          <mxGeometry x="30" y="210" width="790" height="280" as="geometry" />
        </mxCell>
        <mxCell id="44rVyUkaG0VhfGzwX1aD-18" value="[Επιτρέπεται]" style="text;align=center;fontStyle=1;verticalAlign=middle;spacingLeft=3;spacingRight=3;strokeColor=none;rotatable=0;points=[[0,0.5],[1,0.5]];portConstraint=eastwest;html=1;" parent="1" vertex="1">
          <mxGeometry x="110" y="210" width="80" height="26" as="geometry" />
        </mxCell>
        <mxCell id="44rVyUkaG0VhfGzwX1aD-20" value="Χρωματισμός ακινήτου&amp;nbsp;" style="html=1;verticalAlign=bottom;startArrow=oval;startFill=1;endArrow=block;startSize=8;curved=0;rounded=0;" parent="1" target="drGGtkwrbKBe00aPsDjd-8" edge="1">
          <mxGeometry x="-0.4348" width="60" relative="1" as="geometry">
            <mxPoint x="475" y="340" as="sourcePoint" />
            <mxPoint x="705" y="340" as="targetPoint" />
            <mxPoint as="offset" />
          </mxGeometry>
        </mxCell>
        <mxCell id="44rVyUkaG0VhfGzwX1aD-23" value="" style="html=1;points=[[0,0,0,0,5],[0,1,0,0,-5],[1,0,0,0,5],[1,1,0,0,-5]];perimeter=orthogonalPerimeter;outlineConnect=0;targetShapes=umlLifeline;portConstraint=eastwest;newEdgeStyle={&quot;curved&quot;:0,&quot;rounded&quot;:0};" parent="1" vertex="1">
          <mxGeometry x="220" y="290" height="40" as="geometry" />
        </mxCell>
        <mxCell id="44rVyUkaG0VhfGzwX1aD-24" value="Ενημέρωση υπολοίπου παίκτη" style="html=1;align=left;spacingLeft=2;endArrow=block;rounded=0;edgeStyle=orthogonalEdgeStyle;curved=0;rounded=0;" parent="1" target="44rVyUkaG0VhfGzwX1aD-23" edge="1">
          <mxGeometry relative="1" as="geometry">
            <mxPoint x="225" y="270" as="sourcePoint" />
            <Array as="points">
              <mxPoint x="255" y="300" />
            </Array>
          </mxGeometry>
        </mxCell>
        <mxCell id="44rVyUkaG0VhfGzwX1aD-25" value="Εμφάνιση νέου υπολοίπου&amp;nbsp;" style="html=1;verticalAlign=bottom;startArrow=oval;startFill=1;endArrow=block;startSize=8;curved=0;rounded=0;" parent="1" target="drGGtkwrbKBe00aPsDjd-8" edge="1">
          <mxGeometry x="-0.3814" width="60" relative="1" as="geometry">
            <mxPoint x="220" y="320" as="sourcePoint" />
            <mxPoint x="680" y="320" as="targetPoint" />
            <mxPoint as="offset" />
          </mxGeometry>
        </mxCell>
        <mxCell id="44rVyUkaG0VhfGzwX1aD-26" value="Παίκτης" style="text;align=center;fontStyle=1;verticalAlign=middle;spacingLeft=3;spacingRight=3;strokeColor=none;rotatable=0;points=[[0,0.5],[1,0.5]];portConstraint=eastwest;html=1;" parent="1" vertex="1">
          <mxGeometry x="60" y="60" width="80" height="26" as="geometry" />
        </mxCell>
        <mxCell id="44rVyUkaG0VhfGzwX1aD-28" value="Εμφάνιση&amp;nbsp;&lt;div&gt;Επιτυχίας&lt;/div&gt;" style="html=1;align=left;spacingLeft=2;endArrow=block;rounded=0;edgeStyle=orthogonalEdgeStyle;curved=0;rounded=0;" parent="1" edge="1">
          <mxGeometry relative="1" as="geometry">
            <mxPoint x="710" y="330" as="sourcePoint" />
            <Array as="points">
              <mxPoint x="740" y="330" />
              <mxPoint x="740" y="360" />
            </Array>
            <mxPoint x="710" y="360" as="targetPoint" />
          </mxGeometry>
        </mxCell>
        <mxCell id="44rVyUkaG0VhfGzwX1aD-29" value="" style="endArrow=none;dashed=1;html=1;rounded=0;exitX=0.002;exitY=0.626;exitDx=0;exitDy=0;exitPerimeter=0;entryX=0.999;entryY=0.629;entryDx=0;entryDy=0;entryPerimeter=0;" parent="1" source="44rVyUkaG0VhfGzwX1aD-16" target="44rVyUkaG0VhfGzwX1aD-16" edge="1">
          <mxGeometry width="50" height="50" relative="1" as="geometry">
            <mxPoint x="270" y="400" as="sourcePoint" />
            <mxPoint x="320" y="350" as="targetPoint" />
          </mxGeometry>
        </mxCell>
        <mxCell id="44rVyUkaG0VhfGzwX1aD-30" value="[Δεν Επιτρέπεται]" style="text;align=center;fontStyle=1;verticalAlign=middle;spacingLeft=3;spacingRight=3;strokeColor=none;rotatable=0;points=[[0,0.5],[1,0.5]];portConstraint=eastwest;html=1;" parent="1" vertex="1">
          <mxGeometry x="120" y="390" width="80" height="26" as="geometry" />
        </mxCell>
        <mxCell id="44rVyUkaG0VhfGzwX1aD-34" value="Εμφάνιση&amp;nbsp;&lt;div&gt;μυνήματος&amp;nbsp;&lt;/div&gt;&lt;div&gt;αποτυχίας&lt;/div&gt;" style="html=1;align=left;spacingLeft=2;endArrow=block;rounded=0;edgeStyle=orthogonalEdgeStyle;curved=0;rounded=0;" parent="1" edge="1" source="drGGtkwrbKBe00aPsDjd-8">
          <mxGeometry relative="1" as="geometry">
            <mxPoint x="715" y="416" as="sourcePoint" />
            <Array as="points">
              <mxPoint x="745" y="416" />
              <mxPoint x="745" y="446" />
            </Array>
            <mxPoint x="715" y="446" as="targetPoint" />
          </mxGeometry>
        </mxCell>
        <mxCell id="drGGtkwrbKBe00aPsDjd-1" value="" style="shape=umlLifeline;perimeter=lifelinePerimeter;whiteSpace=wrap;html=1;container=1;dropTarget=0;collapsible=0;recursiveResize=0;outlineConnect=0;portConstraint=eastwest;newEdgeStyle={&quot;curved&quot;:0,&quot;rounded&quot;:0};participant=umlControl;" vertex="1" parent="1">
          <mxGeometry x="200" y="80" width="40" height="480" as="geometry" />
        </mxCell>
        <mxCell id="drGGtkwrbKBe00aPsDjd-2" value="" style="html=1;points=[[0,0,0,0,5],[0,1,0,0,-5],[1,0,0,0,5],[1,1,0,0,-5]];perimeter=orthogonalPerimeter;outlineConnect=0;targetShapes=umlLifeline;portConstraint=eastwest;newEdgeStyle={&quot;curved&quot;:0,&quot;rounded&quot;:0};" vertex="1" parent="drGGtkwrbKBe00aPsDjd-1">
          <mxGeometry x="15" y="40" width="10" height="440" as="geometry" />
        </mxCell>
        <mxCell id="drGGtkwrbKBe00aPsDjd-3" value="Game Controller" style="text;align=center;fontStyle=1;verticalAlign=middle;spacingLeft=3;spacingRight=3;strokeColor=none;rotatable=0;points=[[0,0.5],[1,0.5]];portConstraint=eastwest;html=1;" vertex="1" parent="1">
          <mxGeometry x="180" y="60" width="80" height="26" as="geometry" />
        </mxCell>
        <mxCell id="drGGtkwrbKBe00aPsDjd-4" value="" style="shape=umlLifeline;perimeter=lifelinePerimeter;whiteSpace=wrap;html=1;container=1;dropTarget=0;collapsible=0;recursiveResize=0;outlineConnect=0;portConstraint=eastwest;newEdgeStyle={&quot;curved&quot;:0,&quot;rounded&quot;:0};participant=umlEntity;" vertex="1" parent="1">
          <mxGeometry x="450" y="80" width="40" height="480" as="geometry" />
        </mxCell>
        <mxCell id="drGGtkwrbKBe00aPsDjd-5" value="" style="html=1;points=[[0,0,0,0,5],[0,1,0,0,-5],[1,0,0,0,5],[1,1,0,0,-5]];perimeter=orthogonalPerimeter;outlineConnect=0;targetShapes=umlLifeline;portConstraint=eastwest;newEdgeStyle={&quot;curved&quot;:0,&quot;rounded&quot;:0};" vertex="1" parent="drGGtkwrbKBe00aPsDjd-4">
          <mxGeometry x="15" y="40" width="10" height="440" as="geometry" />
        </mxCell>
        <mxCell id="drGGtkwrbKBe00aPsDjd-6" value="Board" style="text;align=center;fontStyle=1;verticalAlign=middle;spacingLeft=3;spacingRight=3;strokeColor=none;rotatable=0;points=[[0,0.5],[1,0.5]];portConstraint=eastwest;html=1;" vertex="1" parent="1">
          <mxGeometry x="430" y="60" width="80" height="26" as="geometry" />
        </mxCell>
        <mxCell id="drGGtkwrbKBe00aPsDjd-7" value="" style="shape=umlLifeline;perimeter=lifelinePerimeter;whiteSpace=wrap;html=1;container=1;dropTarget=0;collapsible=0;recursiveResize=0;outlineConnect=0;portConstraint=eastwest;newEdgeStyle={&quot;curved&quot;:0,&quot;rounded&quot;:0};participant=umlBoundary;" vertex="1" parent="1">
          <mxGeometry x="680" y="86" width="50" height="480" as="geometry" />
        </mxCell>
        <mxCell id="drGGtkwrbKBe00aPsDjd-8" value="" style="html=1;points=[[0,0,0,0,5],[0,1,0,0,-5],[1,0,0,0,5],[1,1,0,0,-5]];perimeter=orthogonalPerimeter;outlineConnect=0;targetShapes=umlLifeline;portConstraint=eastwest;newEdgeStyle={&quot;curved&quot;:0,&quot;rounded&quot;:0};" vertex="1" parent="drGGtkwrbKBe00aPsDjd-7">
          <mxGeometry x="20" y="40" width="10" height="440" as="geometry" />
        </mxCell>
        <mxCell id="drGGtkwrbKBe00aPsDjd-9" value="UI" style="text;align=center;fontStyle=1;verticalAlign=middle;spacingLeft=3;spacingRight=3;strokeColor=none;rotatable=0;points=[[0,0.5],[1,0.5]];portConstraint=eastwest;html=1;" vertex="1" parent="1">
          <mxGeometry x="665" y="60" width="80" height="26" as="geometry" />
        </mxCell>
      </root>
    </mxGraphModel>
  </diagram>
</mxfile>
